<svg xmlns="http://www.w3.org/2000/svg" xmlns:xlink="http://www.w3.org/1999/xlink" xmlns:svgjs="http://svgjs.com/svgjs" version="1.1" width="512" height="512" x="0" y="0" viewBox="0 0 511.966 511.966" style="enable-background:new 0 0 512 512" xml:space="preserve" class=""><g><g><path d="m408.572 133.821-8.049 7.257c-7.164 6.458-16.674 10.993-26.289 12.904-10.132 2.178-21.286 1.725-29.935-4.217-2.433-1.671 1.119.608-5.594-3.709-.478-.308-.628-.945-.33-1.429l5.152-8.353c6.162-10.004 15.035-17.468 26.315-19.797 7.737-1.667 16.121-.482 24.221 4.069 5.311 3.193 8.624 7.093 10.798 9.328 1.233 1.319 2.519 2.59 3.711 3.947z" fill="#fdb441" data-original="#fdb441"/><path d="m408.572 133.821 8.049-7.257c11.281-10.169 15.576-25.212 10.054-41.514-3.87-10.564-10.932-19.166-19.661-25.198-3.825-2.627.392.037-10.737-7.088-.491-.314-1.145-.166-1.451.331l-5.132 8.321c-6.204 10.071-7.226 22.653-4.893 34.091 3.951 18.493 12.742 26.846 20.059 34.367 1.234 1.319 2.52 2.59 3.712 3.947z" fill="#fea713" data-original="#fea713" class=""/><path d="m449.622 206.394-10.37 3.15c-8.13 2.465-17.161 2.769-25.44 1.343-13.997-2.416-21.998-7.928-27.327-14.554-1.428-1.802-.94-1.428-5.321-8.391-.302-.48-.165-1.117.309-1.429l8.199-5.394c7.151-4.71 15.571-7.869 24.164-7.816 11.368.104 21.45 5.234 28.29 14.911 1.585 2.423 2.961 5.074 4.074 7.898 2.097 6.167 1.518 4.462 2.613 7.697.3.852.577 1.711.809 2.585z" fill="#fdb441" data-original="#fdb441"/><path d="m449.622 206.394 10.37-3.15c12.852-3.896 21.325-13.408 24.666-23.904 3.958-12.036 2.307-25.456-2.467-35.529-2.569-5.478-6.302-11.262-9.421-16.102-.314-.488-.963-.621-1.448-.302l-8.174 5.377c-7.523 4.955-12.679 12.199-16.109 20.492-4.311 10.335-5.64 23.186-3.267 34.245.515 2.903 1.314 5.767 2.427 8.591 2.097 6.167 1.518 4.462 2.613 7.697.301.852.578 1.711.81 2.585z" fill="#fea713" data-original="#fea713" class=""/><path d="m455.933 289.539-10.729-1.53c-8.443-1.209-16.692-4.715-23.563-9.545-7.523-5.184-12.667-11.312-15.11-15.834-4.023-6.935-3.757-11.042-4.731-18.956-.07-.566.322-1.088.886-1.169l9.712-1.385c8.585-1.229 17.24-.481 25.195 3.227 3.602 1.724 6.979 4.13 9.918 7.07.484.487.969.988 1.418 1.505 2.23 2.658 4.066 5.621 5.502 8.764 1.375 3.22 2.277 6.938 2.714 10.381.169 2.185.17 4.445-.001 6.703l-.205 2.702c-.077.9-.217 1.793-.323 2.69z" fill="#fdb441" data-original="#fdb441"/><path d="m455.933 289.539 10.729 1.53c9.063 1.297 17.752-.477 25.456-5.355 3.835-2.487 7.258-5.784 10.112-9.472 8.366-10.944 10.924-25.222 9.251-38.698-.102-1.155-.27-2.305-.405-3.458l-.746-5.86c-.074-.578-.606-.983-1.182-.901l-9.681 1.38c-8.777 1.256-16.849 5.667-23.301 11.674-3.32 3.021-6.172 6.279-8.605 9.863-.408.596-.789 1.198-1.18 1.808-2.097 3.153-3.773 6.38-5.037 9.617-1.461 3.484-2.517 6.719-3.185 10.452-.505 2.199-.842 4.401-1.014 6.652l-.205 2.702c-.077.9-.217 1.793-.323 2.69z" fill="#fea713" data-original="#fea713" class=""/><path d="m426.411 367.502-9.054-5.956c-5.07-3.339-9.287-7.485-12.708-11.894-7.052-9.068-12.977-22.716-11.396-33.982.393-4.306 2.638-9.343 3.641-12.551.171-.548.746-.85 1.296-.683l9.357 2.842c8.347 2.531 15.839 6.842 21.415 13.551 6.92 8.321 9.8 19.456 6.611 31.273-.405 1.395-.82 2.821-1.432 4.17-2.038 4.555-5.337 9.486-7.73 13.23z" fill="#fdb441" data-original="#fdb441"/><path d="m426.411 367.502 9.054 5.956c11.207 7.381 24.882 8.673 38.53 1.746 11.329-6.033 18.996-15.957 23.659-27.973 1.263-3.688 3.247-9.412 4.119-12.242.17-.552-.143-1.131-.696-1.299l-9.379-2.849c-9.074-2.751-20.533-2.466-34.204 3.968-7.391 3.562-15.229 9.636-20.338 16.117-.931 1.136-1.743 2.357-2.619 3.565-2.443 3.402-1.193 2.164-8.126 13.011z" fill="#fea713" data-original="#fea713" class=""/><path d="m366.61 425.608-5.689-9.224c-4.501-7.308-7.064-15.911-7.749-24.23-.794-9.032.421-20.193 5.33-27.582 2.459-4.038 5.248-6.079 8.661-9.854.388-.43 1.05-.473 1.48-.085l7.269 6.553c7.595 6.846 12.986 15.377 14.445 25.417 1.743 13.551-4.369 25.919-14.699 33.041l-2.208 1.57c-2.867 1.849-1.355.877-6.84 4.394z" fill="#fdb441" data-original="#fdb441"/><path d="m366.61 425.608 5.689 9.224c6.362 10.328 16.588 16.856 29.375 17.765 12.114.963 25.891-3.612 38.004-15.195 1.303-1.258 6.694-6.902 8.897-9.289.394-.426.36-1.091-.071-1.479l-7.271-6.555c-7.595-6.846-17.914-10.327-28.252-10.836-12.172-.805-25.587 2.307-37.323 10.403-.002-.002-3.563 2.445-9.048 5.962z" fill="#fea713" data-original="#fea713" class=""/><path d="m361.985 96.054-5.774-12.173c-12.94-27.279-45.544-38.903-72.823-25.963l-11.23 5.327c-.521.247-.743.869-.496 1.39l5.327 11.23c12.94 27.279 45.544 38.903 72.823 25.963z" fill="#fdb441" data-original="#fdb441"/><path d="m103.362 133.821 8.049 7.257c7.164 6.458 16.674 10.993 26.289 12.904 10.132 2.178 21.286 1.725 29.935-4.217 2.433-1.671-1.119.608 5.594-3.709.478-.308.628-.945.33-1.429l-5.152-8.353c-6.162-10.004-15.035-17.468-26.315-19.797-7.737-1.667-16.121-.482-24.221 4.069-5.311 3.193-8.624 7.093-10.798 9.328-1.233 1.319-2.519 2.59-3.711 3.947z" fill="#fea713" data-original="#fea713" class=""/><path d="m103.362 133.821-8.049-7.257c-11.281-10.169-15.576-25.212-10.054-41.514 3.87-10.564 10.932-19.166 19.661-25.198 3.825-2.627-.392.037 10.737-7.088.491-.314 1.145-.166 1.451.331l5.132 8.321c6.204 10.071 7.226 22.653 4.893 34.091-3.951 18.493-12.742 26.846-20.059 34.367-1.234 1.319-2.52 2.59-3.712 3.947z" fill="#fdb441" data-original="#fdb441"/><path d="m62.312 206.394 10.37 3.15c8.13 2.465 17.161 2.769 25.44 1.343 13.997-2.416 21.998-7.928 27.327-14.554 1.428-1.802.94-1.428 5.321-8.391.302-.48.165-1.117-.309-1.429l-8.199-5.394c-7.151-4.71-15.571-7.869-24.164-7.816-11.368.104-21.45 5.234-28.29 14.911-1.585 2.423-2.961 5.074-4.074 7.898-2.097 6.167-1.518 4.462-2.613 7.697-.3.852-.577 1.711-.809 2.585z" fill="#fea713" data-original="#fea713" class=""/><path d="m62.312 206.394-10.37-3.15c-12.852-3.896-21.325-13.408-24.666-23.904-3.958-12.036-2.307-25.456 2.467-35.529 2.569-5.478 6.302-11.262 9.421-16.102.314-.488.963-.621 1.448-.302l8.174 5.377c7.523 4.955 12.679 12.199 16.109 20.492 4.311 10.335 5.64 23.186 3.267 34.245-.515 2.903-1.314 5.767-2.427 8.591-2.097 6.167-1.518 4.462-2.613 7.697-.301.852-.578 1.711-.81 2.585z" fill="#fdb441" data-original="#fdb441"/><path d="m56.001 289.539 10.729-1.53c8.443-1.209 16.692-4.715 23.563-9.545 7.523-5.184 12.667-11.312 15.11-15.834 4.023-6.935 3.757-11.042 4.731-18.956.07-.566-.322-1.088-.886-1.169l-9.712-1.385c-8.585-1.229-17.24-.481-25.195 3.227-3.601 1.724-6.979 4.13-9.918 7.07-.484.487-.969.988-1.418 1.505-2.23 2.658-4.066 5.621-5.502 8.764-1.375 3.22-2.277 6.938-2.714 10.381-.169 2.185-.17 4.445.002 6.703l.205 2.702c.077.9.217 1.793.323 2.69z" fill="#fea713" data-original="#fea713" class=""/><path d="m56.001 289.539-10.729 1.53c-9.063 1.297-17.752-.477-25.456-5.355-4.505-2.926-8.458-6.968-11.556-11.447-2.322-3.548-4.165-7.399-5.57-11.348-3.174-9.233-3.194-19.234-1.832-28.833l.746-5.86c.074-.578.606-.983 1.182-.901l9.681 1.38c8.777 1.256 16.849 5.667 23.301 11.674 3.32 3.021 6.172 6.279 8.605 9.863.407.596.789 1.198 1.18 1.808 2.097 3.153 3.773 6.38 5.037 9.617 1.461 3.484 2.517 6.719 3.185 10.452.505 2.199.842 4.401 1.014 6.652l.205 2.702c.077.9.217 1.793.323 2.69z" fill="#fdb441" data-original="#fdb441"/><path d="m85.523 367.502 9.054-5.956c5.07-3.339 9.287-7.485 12.708-11.894 7.053-9.068 12.977-22.716 11.396-33.982-.393-4.306-2.638-9.343-3.641-12.551-.171-.548-.746-.85-1.296-.683l-9.357 2.842c-8.347 2.531-15.839 6.842-21.415 13.551-6.92 8.321-9.8 19.456-6.611 31.273.405 1.395.82 2.821 1.432 4.17 2.038 4.555 5.337 9.486 7.73 13.23z" fill="#fea713" data-original="#fea713" class=""/><path d="m85.523 367.502-9.054 5.956c-11.207 7.381-24.882 8.673-38.53 1.746-11.329-6.033-18.996-15.957-23.659-27.973-1.263-3.688-3.247-9.412-4.119-12.242-.17-.552.143-1.131.696-1.299l9.379-2.849c9.074-2.751 20.533-2.466 34.204 3.968 7.391 3.562 15.23 9.636 20.338 16.117.931 1.136 1.743 2.357 2.619 3.565 2.443 3.402 1.193 2.164 8.126 13.011z" fill="#fdb441" data-original="#fdb441"/><path d="m145.324 425.608 5.689-9.224c4.501-7.308 7.064-15.911 7.749-24.23.794-9.032-.421-20.193-5.33-27.582-2.459-4.038-5.248-6.079-8.661-9.854-.388-.43-1.05-.473-1.48-.085l-7.269 6.553c-7.595 6.846-12.986 15.377-14.445 25.417-1.743 13.551 4.369 25.919 14.699 33.041l2.208 1.57c2.867 1.849 1.355.877 6.84 4.394z" fill="#fea713" data-original="#fea713" class=""/><path d="m145.324 425.608-5.689 9.224c-6.362 10.328-16.588 16.856-29.375 17.765-12.114.963-25.891-3.612-38.004-15.195-1.303-1.258-6.694-6.902-8.897-9.289-.394-.426-.36-1.091.071-1.479l7.271-6.555c7.595-6.846 17.914-10.327 28.252-10.836 12.172-.805 25.587 2.307 37.323 10.403.002-.002 3.563 2.445 9.048 5.962z" fill="#fdb441" data-original="#fdb441"/><path d="m149.949 96.054 5.774-12.173c12.94-27.279 45.544-38.903 72.823-25.963l11.23 5.327c.521.247.743.869.496 1.39l-5.327 11.23c-12.94 27.279-45.544 38.903-72.823 25.963z" fill="#fdb441" data-original="#fdb441"/><g fill="#fece85"><path d="m295.227 459.366c-3.643 0-6.839-2.658-7.405-6.37-.625-4.095 2.188-7.921 6.283-8.545 89.156-13.603 156.349-91.94 156.297-182.22-.047-81.531-52.336-152.358-130.114-176.244-3.96-1.216-6.184-5.412-4.968-9.371s5.412-6.187 9.371-4.968c39.855 12.239 75.672 37.457 100.854 71.006 26.049 34.705 39.831 76.051 39.856 119.568.028 47.869-17.238 94.184-48.617 130.412-31.068 35.869-73.833 59.538-120.417 66.645-.383.059-.764.087-1.14.087z" fill="#fece85" data-original="#fece85" class=""/><path d="m216.708 459.366c-.376 0-.757-.028-1.141-.087-46.583-7.107-89.349-30.776-120.417-66.645-31.379-36.229-48.645-82.543-48.617-130.412.025-43.517 13.807-84.863 39.856-119.568 25.182-33.549 60.999-58.767 100.854-71.006 3.959-1.215 8.156 1.008 9.371 4.968 1.216 3.959-1.008 8.155-4.968 9.371-77.778 23.885-130.066 94.713-130.113 176.244-.052 90.28 67.141 168.617 156.297 182.22 4.095.625 6.908 4.451 6.283 8.545-.567 3.712-3.763 6.37-7.405 6.37z" fill="#fece85" data-original="#fece85" class=""/></g></g></g></svg>