<svg width="32" height="32" viewBox="0 0 32 32" fill="none" xmlns="http://www.w3.org/2000/svg">
<path d="M0 15.36C0 8.11907 -2.12913e-06 4.49488 2.24893 2.24893C4.49786 0.00297454 8.11907 0 15.36 0H16.64C23.8809 0 27.5051 -2.12913e-06 29.7511 2.24893C31.997 4.49786 32 8.11907 32 15.36V16.64C32 23.8809 32 27.5051 29.7511 29.7511C27.5021 31.997 23.8809 32 16.64 32H15.36C8.11907 32 4.49488 32 2.24893 29.7511C0.00297454 27.5021 0 23.8809 0 16.64V15.36Z" fill="#2C8CFC"/>
<path d="M25.5004 16.0149C25.5004 19.2491 23.9867 20.7628 22.0772 20.7628C21.5545 20.7634 21.0403 20.631 20.5828 20.3782C20.1254 20.1254 19.7397 19.7604 19.4621 19.3176C18.6953 20.0983 17.6811 20.5884 16.5929 20.704C15.5047 20.8197 14.4101 20.5537 13.4963 19.9516C12.5826 19.3496 11.9063 18.4487 11.5832 17.4032C11.2601 16.3577 11.3103 15.2324 11.7251 14.2197C12.14 13.2071 12.8937 12.37 13.8574 11.8516C14.8211 11.3332 15.935 11.1657 17.0086 11.3777C18.0822 11.5897 19.0488 12.1681 19.7431 13.0139C20.4374 13.8598 20.8163 14.9206 20.815 16.0149V17.5509C20.815 18.3308 21.3657 18.8815 22.0772 18.8815C22.9255 18.8815 23.6146 18.1715 23.6146 16.0149C23.6235 14.3334 23.0718 12.6968 22.0467 11.3639C21.0216 10.0309 19.5815 9.07759 17.9541 8.65448C16.3266 8.23137 14.6046 8.36263 13.0601 9.02751C11.5156 9.69239 10.2366 10.853 9.4254 12.3259C8.61415 13.7988 8.31684 15.5001 8.58046 17.1608C8.84407 18.8216 9.65357 20.3471 10.881 21.4964C12.1085 22.6457 13.684 23.3533 15.3584 23.5072C17.0329 23.6611 18.711 23.2527 20.1274 22.3464L21.3657 23.7678C19.8075 24.8338 17.9625 25.4016 16.0746 25.3961C14.2142 25.3917 12.3969 24.8356 10.8526 23.7982C9.30826 22.7608 8.1063 21.2888 7.39872 19.5682C6.69113 17.8476 6.50973 15.9558 6.87744 14.1322C7.24515 12.3085 8.14546 10.6348 9.46449 9.32286C10.7835 8.01091 12.462 7.11962 14.2876 6.76173C16.1133 6.40384 18.0041 6.59543 19.7208 7.31226C21.4375 8.0291 22.9031 9.23897 23.9322 10.7888C24.9612 12.3387 25.5075 14.159 25.5019 16.0193L25.5004 16.0149ZM16.0954 18.8815C16.6628 18.8818 17.2175 18.7138 17.6894 18.3987C18.1613 18.0837 18.5291 17.6358 18.7464 17.1116C18.9636 16.5875 19.0206 16.0107 18.9099 15.4542C18.7993 14.8977 18.5261 14.3865 18.1249 13.9853C17.7237 13.5841 17.2125 13.311 16.656 13.2003C16.0996 13.0897 15.5228 13.1466 14.9986 13.3639C14.4745 13.5812 14.0266 13.949 13.7115 14.4209C13.3965 14.8928 13.2285 15.4475 13.2288 16.0149C13.2292 16.775 13.5313 17.5039 14.0688 18.0414C14.6063 18.5789 15.3352 18.8811 16.0954 18.8815Z" fill="white"/>
</svg>
