<svg width="32" height="32" viewBox="0 0 32 32" fill="none" xmlns="http://www.w3.org/2000/svg">
<path d="M0 15.36C0 8.11907 -2.12913e-06 4.49488 2.24893 2.24893C4.49786 0.00297667 8.11907 0 15.36 0H16.64C23.8809 0 27.5051 0 29.7511 2.24893C31.997 4.49786 32 8.11907 32 15.36V16.64C32 23.8809 32 27.5051 29.7511 29.7511C27.5021 31.997 23.8809 32 16.64 32H15.36C8.11907 32 4.49488 32 2.24893 29.7511C0.00297454 27.5021 0 23.8809 0 16.64V15.36Z" fill="#2C8CFC"/>
<path fill-rule="evenodd" clip-rule="evenodd" d="M6.59212 15.6279C11.7091 13.3983 15.1215 11.9283 16.8291 11.2179C21.7051 9.18923 22.7171 8.83649 23.378 8.82607C23.6206 8.82031 23.8587 8.89171 24.0582 9.02997C24.1977 9.15163 24.2868 9.32091 24.3082 9.50477C24.3438 9.73365 24.3537 9.96577 24.338 10.1969C24.0731 12.9727 22.93 19.709 22.348 22.8168C22.1025 24.1325 21.6187 24.5745 21.1484 24.6177C20.1289 24.7115 19.3549 23.9435 18.3681 23.296C16.8232 22.2839 15.9495 21.6588 14.4507 20.6646C12.7168 19.523 13.8405 18.8949 14.8288 17.8694C15.0878 17.6 19.5782 13.5144 19.666 13.1438C19.6773 13.0894 19.6757 13.0331 19.6615 12.9794C19.6473 12.9257 19.6208 12.876 19.5841 12.8343C19.5308 12.7998 19.47 12.7786 19.4069 12.7724C19.3437 12.7662 19.28 12.7752 19.221 12.7985C19.0662 12.8343 16.598 14.4655 11.8163 17.6923C11.1148 18.1745 10.4802 18.4092 9.91268 18.3963C9.28459 18.3829 8.07901 18.0421 7.18301 17.7503C6.08459 17.3931 5.21092 17.2041 5.28682 16.5969C5.32552 16.2793 5.76062 15.9564 6.59212 15.6279Z" fill="white"/>
</svg>
