<svg width="32" height="32" viewBox="0 0 32 32" fill="none" xmlns="http://www.w3.org/2000/svg">
<path d="M0 15.36C0 8.11907 -2.12913e-06 4.49488 2.24893 2.24893C4.49786 0.00297667 8.11907 0 15.36 0H16.64C23.8809 0 27.5051 0 29.7511 2.24893C31.997 4.49786 32 8.11907 32 15.36V16.64C32 23.8809 32 27.5051 29.7511 29.7511C27.5021 31.997 23.8809 32 16.64 32H15.36C8.11907 32 4.49488 32 2.24893 29.7511C0.00297454 27.5021 0 23.8809 0 16.64V15.36Z" fill="#2C8CFC"/>
<path d="M7.37793 24.7621L8.61328 20.2493C7.65641 18.5886 7.27416 16.6585 7.5258 14.7584C7.77745 12.8583 8.64892 11.0944 10.0051 9.73994C11.3613 8.38553 13.1264 7.51636 15.0268 7.2672C16.9273 7.01805 18.8568 7.40281 20.5163 8.36185C22.1758 9.32089 23.4725 10.8006 24.2055 12.5716C24.9384 14.3426 25.0666 16.306 24.5702 18.1572C24.0738 20.0085 22.9805 21.6443 21.4598 22.811C19.9391 23.9777 18.076 24.6101 16.1593 24.6102C14.7059 24.6105 13.2755 24.2461 11.9993 23.5505L7.37793 24.7621ZM12.2047 21.9743L12.4697 22.1306C13.5847 22.7916 14.8571 23.1402 16.1534 23.1397C17.7576 23.1394 19.3163 22.6061 20.5844 21.6235C21.8525 20.6409 22.7581 19.2648 23.159 17.7114C23.5598 16.158 23.4331 14.5155 22.7988 13.042C22.1645 11.5685 21.0586 10.3475 19.6548 9.57101C18.251 8.7945 16.629 8.50647 15.0437 8.75219C13.4583 8.99791 11.9996 9.76345 10.8968 10.9285C9.79392 12.0935 9.10947 13.592 8.95099 15.1884C8.79252 16.7848 9.16901 18.3886 10.0213 19.7477L10.1939 20.0216L9.46314 22.6932L12.2047 21.9743Z" fill="white"/>
<path fill-rule="evenodd" clip-rule="evenodd" d="M20.5394 17.9736C20.4858 17.8828 20.3399 17.8248 20.1226 17.7191C19.9053 17.6134 18.8352 17.0836 18.6343 17.0121C18.4333 16.9407 18.2904 16.902 18.1446 17.1208C17.9987 17.3396 17.5835 17.8278 17.4555 17.9736C17.3275 18.1195 17.2024 18.1373 16.9851 18.0287C16.3438 17.772 15.7517 17.4064 15.2348 16.9481C14.7592 16.5081 14.3514 16 14.0248 15.4404C13.8983 15.2231 14.0114 15.1055 14.12 14.9939C14.2287 14.8823 14.3373 14.7394 14.446 14.6129C14.5353 14.5028 14.6085 14.3805 14.6633 14.2497C14.6925 14.1898 14.7062 14.1235 14.7031 14.0569C14.6999 13.9903 14.6801 13.9256 14.6454 13.8687C14.5918 13.76 14.1558 12.6884 13.9757 12.2523C13.7956 11.8162 13.6184 11.8862 13.486 11.8787C13.3535 11.8713 13.2136 11.8787 13.0677 11.8787C12.9603 11.8831 12.8549 11.9091 12.7577 11.9551C12.6605 12.0012 12.5736 12.0663 12.5022 12.1466C12.2561 12.3798 12.0612 12.6617 11.93 12.9743C11.7988 13.287 11.7342 13.6235 11.7401 13.9625C11.7401 15.0326 12.52 16.067 12.6331 16.2129C12.7463 16.3587 14.1677 18.5556 16.3541 19.4977C16.7592 19.6729 17.1736 19.8259 17.5954 19.9561C18.0387 20.0919 18.5078 20.1215 18.9647 20.0425C19.3829 19.9799 20.2521 19.5171 20.4337 19.0006C20.6153 18.4841 20.6004 18.0644 20.5394 17.9736Z" fill="white"/>
</svg>
