<svg width="336" height="220" viewBox="0 0 336 220" fill="none" xmlns="http://www.w3.org/2000/svg">
<g clip-path="url(#clip0_1_699)">
<path d="M317.459 212.187H22.6822C18.7293 212.187 15.5293 208.986 15.5293 205.032V7.15447C15.5293 3.20069 18.7293 0 22.6822 0H317.459C321.412 0 324.612 3.20069 324.612 7.15447V204.938C324.706 208.986 321.412 212.187 317.459 212.187Z" fill="#5E94C1"/>
<path d="M307.012 205.032H33.1295C29.1766 205.032 25.9766 201.831 25.9766 197.878V14.4031C25.9766 10.4493 29.1766 7.24866 33.1295 7.24866H307.012C310.965 7.24866 314.165 10.4493 314.165 14.4031V197.878C314.259 201.737 310.965 205.032 307.012 205.032Z" fill="#065090"/>
<path d="M108.8 27.2058H70.9648V31.442H108.8V27.2058Z" fill="#FCFDFD"/>
<path d="M95.059 36.6196H70.9648V40.8558H95.059V36.6196Z" fill="#FCFDFD"/>
<path d="M205.647 36.6196H108.612V40.8558H205.647V36.6196Z" fill="#FCFDFD"/>
<path d="M265.883 36.6196H215.059V40.8558H265.883V36.6196Z" fill="#FF6452"/>
<path d="M141.647 46.0333H80.3765V50.2695H141.647V46.0333Z" fill="#00D050"/>
<path d="M251.765 46.0333H160.471V50.2695H251.765V46.0333Z" fill="#FCFDFD"/>
<path d="M157.177 55.4471H70.9648V59.6833H157.177V55.4471Z" fill="#FF6452"/>
<path d="M226.353 55.4471H165.083V59.6833H226.353V55.4471Z" fill="#5E94C1"/>
<path d="M141.647 64.861H80.3765V69.0972H141.647V64.861Z" fill="#FCFDFD"/>
<path d="M160.471 74.2747H70.9648V78.5109H160.471V74.2747Z" fill="#FCFDFD"/>
<path d="M132.235 83.6885H70.9648V87.9247H132.235V83.6885Z" fill="#FCFDFD"/>
<path d="M192 93.1023H89.7881V97.3385H192V93.1023Z" fill="#FF6452"/>
<path d="M235.765 93.1023H202.729V97.3385H235.765V93.1023Z" fill="#FCFDFD"/>
<path d="M282.823 93.1023H249.788V97.3385H282.823V93.1023Z" fill="#FCFDFD"/>
<path d="M140.894 102.516H99.2002V106.752H140.894V102.516Z" fill="#FCFDFD"/>
<path d="M154.824 111.93H99.2002V116.166H154.824V111.93Z" fill="#FF6452"/>
<path d="M235.765 111.93H174.494V116.166H235.765V111.93Z" fill="#FCFDFD"/>
<path d="M275.294 111.93H249.788V116.166H275.294V111.93Z" fill="#FF6452"/>
<path d="M108.612 121.344H70.9648V125.58H108.612V121.344Z" fill="#FCFDFD"/>
<path d="M132.235 130.757H70.9648V134.994H132.235V130.757Z" fill="#FCFDFD"/>
<path d="M210.353 140.171H99.2002V144.407H210.353V140.171Z" fill="#FCFDFD"/>
<path d="M290.353 140.171H221.553V144.407H290.353V140.171Z" fill="#5E94C1"/>
<path d="M136.941 149.585H99.2002V153.821H136.941V149.585Z" fill="#FCFDFD"/>
<path d="M184 149.585H146.259V153.821H184V149.585Z" fill="#00D050"/>
<path d="M231.059 149.585H193.318V153.821H231.059V149.585Z" fill="#FCFDFD"/>
<path d="M132.235 158.999H70.9648V163.235H132.235V158.999Z" fill="#FCFDFD"/>
<path d="M151.059 168.412H89.7881V172.649H151.059V168.412Z" fill="#00D050"/>
<path d="M224 168.412H162.729V172.649H224V168.412Z" fill="#00D050"/>
<path d="M195.765 187.24H161.412V191.476H195.765V187.24Z" fill="#FCFDFD"/>
<path d="M180.706 177.826H89.7881V182.062H180.706V177.826Z" fill="#FCFDFD"/>
<path d="M47.3413 27.2058H43.106V31.442H47.3413V27.2058Z" fill="#5E94C1"/>
<path d="M47.3413 36.6196H43.106V40.8558H47.3413V36.6196Z" fill="#5E94C1"/>
<path d="M47.3413 46.0333H43.106V50.2695H47.3413V46.0333Z" fill="#5E94C1"/>
<path d="M47.3413 55.4471H43.106V59.6833H47.3413V55.4471Z" fill="#5E94C1"/>
<path d="M47.3413 64.861H43.106V69.0972H47.3413V64.861Z" fill="#5E94C1"/>
<path d="M47.3413 74.2747H43.106V78.5109H47.3413V74.2747Z" fill="#5E94C1"/>
<path d="M47.3413 83.6885H43.106V87.9247H47.3413V83.6885Z" fill="#5E94C1"/>
<path d="M47.3413 93.1023H43.106V97.3385H47.3413V93.1023Z" fill="#5E94C1"/>
<path d="M47.3413 102.516H43.106V106.752H47.3413V102.516Z" fill="#5E94C1"/>
<path d="M47.3413 111.93H43.106V116.166H47.3413V111.93Z" fill="#5E94C1"/>
<path d="M47.3413 121.344H43.106V125.58H47.3413V121.344Z" fill="#5E94C1"/>
<path d="M47.3413 130.757H43.106V134.994H47.3413V130.757Z" fill="#5E94C1"/>
<path d="M47.3413 140.171H43.106V144.407H47.3413V140.171Z" fill="#5E94C1"/>
<path d="M47.3413 149.585H43.106V153.821H47.3413V149.585Z" fill="#5E94C1"/>
<path d="M47.3413 158.999H43.106V163.235H47.3413V158.999Z" fill="#5E94C1"/>
<path d="M47.3413 168.412H43.106V172.649H47.3413V168.412Z" fill="#5E94C1"/>
<path d="M47.3413 177.826H43.106V182.062H47.3413V177.826Z" fill="#5E94C1"/>
<path d="M47.3413 187.24H43.106V191.476H47.3413V187.24Z" fill="#5E94C1"/>
<path d="M135.247 187.24H89.7881V191.476H135.247V187.24Z" fill="#FCFDFD"/>
<path d="M267.953 191.382L250.071 183.757V180.65L267.953 173.025V176.32L253.741 182.157L267.953 187.993V191.382Z" fill="#FCFDFD"/>
<path d="M280.565 168.507L272.753 195.524H270.118L277.929 168.507H280.565Z" fill="#FCFDFD"/>
<path d="M300.518 183.757L282.635 191.382V188.087L296.847 182.251L282.635 176.414V173.119L300.518 180.745V183.757Z" fill="#FCFDFD"/>
<path d="M317.176 220H18.8235C8.47059 220 0 211.528 0 201.172H336C336 211.622 327.529 220 317.176 220Z" fill="#3E729F"/>
<g opacity="0.1">
<g opacity="0.1">
<path opacity="0.1" d="M121.789 205.032L192 7.15442H165.365L95.1533 205.032H121.789Z" fill="white"/>
</g>
<g opacity="0.1">
<path opacity="0.1" d="M33.2238 205.032H45.7414L115.953 7.15442H33.2238C29.2708 7.15442 26.0708 10.3551 26.0708 14.3089V197.783C25.9767 201.737 29.2708 205.032 33.2238 205.032Z" fill="white"/>
</g>
<g opacity="0.1">
<path opacity="0.1" d="M270.683 205.032H307.106C311.059 205.032 314.259 201.831 314.259 197.878V82.2764L270.683 205.032Z" fill="white"/>
</g>
</g>
<g opacity="0.1">
<g opacity="0.1">
<path opacity="0.1" d="M173.459 205.032H222.306L292.518 7.15442H243.671L173.459 205.032Z" fill="white"/>
</g>
</g>
<path d="M333.459 210.586C335.059 207.856 336 204.561 336 201.172H0C0 204.561 0.941176 207.856 2.54118 210.586H333.459Z" fill="#5E94C1"/>
</g>
<defs>
<clipPath id="clip0_1_699">
<rect width="336" height="220" fill="white"/>
</clipPath>
</defs>
</svg>
