<svg width="22" height="26" viewBox="0 0 22 26" fill="none" xmlns="http://www.w3.org/2000/svg">
<path d="M10.6823 12.5243C12.4029 12.5243 13.8926 11.9072 15.1102 10.6897C16.3273 9.47229 16.9446 7.98277 16.9446 6.26196C16.9446 4.54175 16.3275 3.05203 15.11 1.83427C13.8924 0.617111 12.4027 0 10.6823 0C8.96147 0 7.47195 0.617111 6.25459 1.83447C5.03723 3.05183 4.41992 4.54155 4.41992 6.26196C4.41992 7.98277 5.03723 9.47249 6.25459 10.6898C7.47235 11.907 8.96207 12.5243 10.6823 12.5243V12.5243ZM7.33211 2.91179C8.2662 1.97769 9.36197 1.52364 10.6823 1.52364C12.0024 1.52364 13.0984 1.97769 14.0327 2.91179C14.9668 3.84608 15.421 4.94205 15.421 6.26196C15.421 7.58228 14.9668 8.67804 14.0327 9.61234C13.0984 10.5466 12.0024 11.0007 10.6823 11.0007C9.36237 11.0007 8.2666 10.5464 7.33211 9.61234C6.39781 8.67824 5.94356 7.58228 5.94356 6.26196C5.94356 4.94205 6.39781 3.84608 7.33211 2.91179Z" fill="white"/>
<path d="M21.6398 19.9927C21.6047 19.4861 21.5337 18.9334 21.4292 18.3499C21.3237 17.7619 21.1878 17.2061 21.0251 16.6981C20.8569 16.173 20.6286 15.6545 20.3459 15.1576C20.0529 14.6418 19.7086 14.1927 19.3222 13.8232C18.9181 13.4366 18.4234 13.1257 17.8513 12.899C17.2812 12.6735 16.6494 12.5592 15.9736 12.5592C15.7082 12.5592 15.4515 12.6681 14.9558 12.9908C14.6507 13.1898 14.2938 13.4199 13.8955 13.6744C13.5549 13.8914 13.0935 14.0947 12.5236 14.2788C11.9676 14.4587 11.4031 14.55 10.8457 14.55C10.2887 14.55 9.72411 14.4587 9.16769 14.2788C8.59839 14.0949 8.1368 13.8916 7.7968 13.6746C7.40225 13.4225 7.0452 13.1924 6.73555 12.9906C6.24023 12.6679 5.98355 12.559 5.71814 12.559C5.04211 12.559 4.41052 12.6735 3.84062 12.8992C3.26894 13.1255 2.77402 13.4364 2.36955 13.8234C1.98314 14.1931 1.63878 14.642 1.34599 15.1576C1.06372 15.6545 0.835205 16.1728 0.666992 16.6983C0.504532 17.2063 0.368652 17.7619 0.263123 18.3499C0.158386 18.9326 0.0875702 19.4855 0.0524597 19.9933C0.0179443 20.4898 0.000488281 21.0065 0.000488281 21.5286C0.000488281 22.8858 0.431931 23.9846 1.28271 24.7949C2.12299 25.5945 3.23462 26 4.58687 26H17.106C18.4579 26 19.5695 25.5945 20.41 24.7949C21.261 23.9852 21.6924 22.886 21.6924 21.5284C21.6922 21.0046 21.6746 20.4878 21.6398 19.9927V19.9927ZM19.3595 23.691C18.8042 24.2195 18.0671 24.4763 17.1058 24.4763H4.58687C3.6254 24.4763 2.88828 24.2195 2.33325 23.6912C1.78874 23.1729 1.52412 22.4653 1.52412 21.5286C1.52412 21.0415 1.54019 20.5604 1.57233 20.0986C1.60367 19.6456 1.66774 19.1479 1.76276 18.619C1.85658 18.0967 1.976 17.6066 2.11803 17.1628C2.2543 16.7374 2.44017 16.316 2.67067 15.9102C2.89066 15.5234 3.14377 15.1915 3.42307 14.9241C3.68431 14.674 4.0136 14.4693 4.4016 14.3157C4.76044 14.1737 5.16371 14.0959 5.6015 14.0842C5.65486 14.1126 5.74988 14.1667 5.90381 14.2671C6.21703 14.4712 6.57805 14.7041 6.97716 14.959C7.42705 15.2458 8.00667 15.5049 8.69916 15.7285C9.40712 15.9574 10.1292 16.0736 10.8459 16.0736C11.5625 16.0736 12.2848 15.9574 12.9924 15.7287C13.6854 15.5047 14.2649 15.2458 14.7153 14.9586C15.1238 14.6976 15.4747 14.4714 15.7879 14.2671C15.9418 14.1669 16.0368 14.1126 16.0902 14.0842C16.5282 14.0959 16.9315 14.1737 17.2905 14.3157C17.6783 14.4693 18.0076 14.6742 18.2688 14.9241C18.5481 15.1913 18.8013 15.5232 19.0212 15.9104C19.2519 16.316 19.438 16.7375 19.5741 17.1626C19.7163 17.607 19.8359 18.0969 19.9296 18.6188C20.0244 19.1487 20.0886 19.6466 20.12 20.0988V20.0992C20.1523 20.5592 20.1686 21.0401 20.1688 21.5286C20.1686 22.4655 19.904 23.1729 19.3595 23.691V23.691Z" fill="white"/>
</svg>
